<?xml version="1.0" standalone="no"?>
<!DOCTYPE svg PUBLIC "-//W3C//DTD SVG 20010904//EN"
 "http://www.w3.org/TR/2001/REC-SVG-20010904/DTD/svg10.dtd">
<svg version="1.0" xmlns="http://www.w3.org/2000/svg"
 width="352.000000pt" height="324.000000pt" viewBox="0 0 352.000000 324.000000"
 preserveAspectRatio="xMidYMid meet">

<g transform="translate(0.000000,324.000000) scale(0.100000,-0.100000)"
fill="#000000" stroke="none">
<path d="M544 2965 c-132 -29 -229 -106 -292 -234 l-37 -75 -3 -765 c-3 -826
-3 -814 50 -908 78 -136 204 -210 376 -220 l92 -6 0 -274 0 -275 29 -29 c22
-21 39 -29 66 -29 39 0 50 10 490 442 77 75 149 144 160 152 17 13 113 15 720
16 761 0 774 1 876 57 73 40 137 109 178 193 l36 75 3 765 c3 743 2 766 -18
831 -45 150 -177 263 -337 289 -34 6 -517 10 -1193 9 -904 0 -1147 -3 -1196
-14z m2412 -171 c57 -24 102 -62 132 -113 l27 -46 0 -765 c0 -854 5 -790 -71
-864 -78 -75 -22 -70 -866 -76 l-757 -5 -32 -30 c-18 -16 -134 -128 -258 -249
l-226 -219 -6 234 c-3 129 -6 235 -7 236 -1 1 -15 9 -32 18 -21 11 -61 15
-148 15 -65 0 -134 5 -153 12 -58 19 -117 67 -146 116 l-28 47 0 765 0 765 22
41 c26 48 72 90 128 115 38 18 99 19 1211 19 1049 0 1176 -2 1210 -16z"/>
<path d="M965 2027 c-128 -73 -106 -265 36 -312 83 -28 174 11 210 89 55 121
-25 246 -156 246 -33 0 -63 -8 -90 -23z"/>
<path d="M1660 2028 c-47 -32 -71 -68 -77 -116 -8 -63 5 -109 43 -151 63 -71
165 -75 239 -10 42 37 59 86 53 151 -9 90 -75 148 -168 148 -43 0 -65 -6 -90
-22z"/>
<path d="M2361 2029 c-46 -28 -67 -56 -82 -106 -34 -124 87 -246 212 -213 53
14 116 77 125 125 22 121 -49 215 -165 215 -39 0 -66 -6 -90 -21z"/>
</g>
</svg>
