<?xml version="1.0" standalone="no"?>
<!DOCTYPE svg PUBLIC "-//W3C//DTD SVG 20010904//EN"
 "http://www.w3.org/TR/2001/REC-SVG-20010904/DTD/svg10.dtd">
<svg version="1.0" xmlns="http://www.w3.org/2000/svg"
 width="346.000000pt" height="346.000000pt" viewBox="0 0 346.000000 346.000000"
 preserveAspectRatio="xMidYMid meet">

<g transform="translate(0.000000,346.000000) scale(0.100000,-0.100000)"
fill="#000000" stroke="none">
<path d="M1435 3436 c-44 -20 -54 -44 -81 -200 -25 -151 -36 -186 -57 -186 -7
0 -46 -16 -87 -36 -41 -20 -85 -40 -97 -45 -18 -7 -43 8 -155 91 -132 98 -175
119 -220 104 -32 -10 -403 -379 -423 -420 -22 -47 -13 -72 70 -184 40 -54 85
-116 100 -139 l28 -41 -42 -89 c-22 -49 -41 -96 -41 -104 0 -26 -27 -44 -77
-51 -26 -4 -99 -16 -161 -28 -100 -18 -115 -24 -137 -50 l-25 -30 0 -290 0
-290 33 -33 c30 -30 41 -33 152 -50 223 -33 192 -17 237 -125 22 -52 45 -106
50 -120 10 -23 2 -37 -89 -158 -56 -73 -103 -146 -107 -163 -10 -49 16 -88
125 -194 57 -55 149 -143 205 -197 133 -129 129 -129 289 -7 66 50 130 98 142
106 20 14 30 11 122 -31 55 -25 105 -46 110 -46 19 0 29 -34 51 -165 24 -144
48 -206 86 -223 34 -16 553 -16 588 -1 39 18 64 83 86 223 21 131 32 166 52
166 6 0 55 20 110 45 72 32 104 42 116 36 9 -5 69 -50 132 -100 114 -90 155
-110 197 -94 29 11 396 365 423 408 33 53 21 85 -91 236 -54 73 -99 138 -99
145 0 10 70 178 89 214 5 10 45 20 118 31 192 29 220 37 248 70 l25 31 0 287
c0 243 -2 290 -16 309 -29 42 -57 50 -324 91 -50 7 -48 4 -105 148 l-36 92 32
48 c18 26 58 82 89 123 72 96 80 111 80 156 0 36 -11 49 -202 241 -214 215
-248 240 -297 213 -13 -6 -80 -54 -151 -106 l-129 -95 -68 34 c-37 19 -89 42
-115 52 -27 10 -48 18 -48 19 0 0 -14 71 -30 156 -31 159 -45 194 -91 217 -36
19 -543 17 -584 -1z m490 -188 c3 -13 19 -90 35 -171 20 -105 34 -152 46 -161
9 -7 49 -23 88 -36 39 -12 116 -45 170 -72 105 -52 130 -55 171 -19 27 23 232
171 238 171 2 0 66 -61 141 -135 l137 -136 -96 -126 c-59 -79 -97 -140 -101
-162 -6 -29 1 -49 44 -130 28 -53 60 -130 73 -171 12 -41 27 -81 32 -89 18
-21 52 -30 192 -51 72 -11 139 -22 149 -26 15 -6 16 -26 14 -198 l-3 -191
-130 -22 c-71 -12 -145 -25 -163 -28 -47 -9 -67 -36 -97 -133 -15 -48 -45
-121 -66 -164 -21 -43 -39 -92 -39 -109 0 -24 23 -64 95 -164 52 -73 95 -135
95 -138 0 -9 -264 -267 -273 -267 -5 0 -52 33 -105 73 -196 147 -196 147 -282
92 -44 -29 -167 -82 -273 -119 -27 -9 -42 -57 -68 -211 l-24 -140 -197 -3
-196 -2 -7 42 c-23 150 -49 276 -60 294 -8 13 -45 32 -92 49 -43 15 -121 47
-173 72 -108 51 -136 54 -182 20 -191 -141 -229 -167 -237 -163 -20 13 -271
260 -271 268 0 4 43 65 95 134 52 69 98 137 101 150 5 18 -9 55 -49 137 -31
62 -63 139 -73 172 -22 77 -32 93 -69 105 -31 9 -168 33 -262 45 l-53 7 0 194
0 193 38 9 c20 5 95 18 165 29 80 13 135 27 146 37 10 9 24 42 30 74 7 31 40
114 72 183 40 84 57 132 53 145 -4 10 -49 78 -101 151 -51 72 -93 134 -93 138
0 8 262 265 270 265 4 0 53 -35 110 -77 57 -43 117 -88 134 -100 17 -13 40
-23 51 -23 12 0 61 20 110 44 50 24 127 55 172 70 51 17 90 36 101 51 16 20
42 138 67 303 l7 42 194 0 c193 0 194 0 199 -22z"/>
<path d="M1560 2596 c-177 -38 -306 -110 -440 -245 -190 -192 -258 -372 -248
-658 4 -109 9 -141 35 -218 85 -247 237 -418 466 -525 125 -58 200 -74 357
-74 102 -1 152 4 204 18 321 86 557 320 636 630 25 97 27 299 5 404 -64 307
-297 558 -600 647 -111 33 -311 43 -415 21z m380 -195 c188 -64 361 -226 428
-401 42 -113 47 -135 46 -255 0 -134 -19 -216 -75 -322 -178 -339 -581 -469
-924 -298 -190 95 -341 310 -368 528 -34 266 89 526 317 672 69 44 110 62 196
86 92 27 287 21 380 -10z"/>
</g>
</svg>
