<?xml version="1.0" standalone="no"?>
<!DOCTYPE svg PUBLIC "-//W3C//DTD SVG 20010904//EN"
 "http://www.w3.org/TR/2001/REC-SVG-20010904/DTD/svg10.dtd">
<svg version="1.0" xmlns="http://www.w3.org/2000/svg"
 width="499.000000pt" height="499.000000pt" viewBox="0 0 499.000000 499.000000"
 preserveAspectRatio="xMidYMid meet">

<g transform="translate(0.000000,499.000000) scale(0.100000,-0.100000)"
fill="#000000" stroke="none">
<path d="M2372 4940 c-218 -30 -409 -125 -563 -279 -148 -148 -229 -304 -265
-506 -21 -120 -20 -1465 1 -1587 37 -216 133 -398 283 -539 85 -81 133 -114
237 -167 175 -87 372 -125 545 -102 327 41 600 236 749 533 105 210 114 309
109 1210 l-4 642 -28 90 c-84 277 -258 482 -517 611 -156 79 -380 117 -547 94z
m324 -261 c193 -58 358 -197 449 -379 50 -100 66 -164 72 -297 l6 -122 -177
-3 -178 -3 -29 -33 c-61 -68 -25 -171 66 -192 22 -5 102 -10 178 -10 l137 0 0
-245 0 -245 -147 0 c-215 0 -252 -16 -260 -107 -5 -57 11 -90 52 -115 25 -14
57 -17 194 -18 l164 -2 -6 -166 c-4 -137 -9 -179 -27 -232 -79 -232 -259 -413
-485 -487 -67 -22 -98 -26 -195 -26 -136 0 -208 16 -326 74 -144 70 -254 178
-329 320 -56 108 -75 198 -75 365 0 168 -18 152 174 154 85 1 140 6 162 15 64
26 94 116 58 171 -32 47 -60 54 -234 54 l-160 0 0 243 0 243 171 10 171 9 34
37 c46 51 47 102 3 153 l-31 35 -174 0 -174 0 0 113 c0 133 17 213 65 309 106
210 309 363 530 399 80 13 243 2 321 -22z"/>
<path d="M1057 3143 c-54 -35 -60 -75 -54 -360 6 -284 19 -372 78 -540 191
-540 653 -923 1202 -996 l89 -12 1 -155 c1 -85 1 -291 0 -457 l-3 -303 -332 0
c-378 0 -387 -2 -422 -74 -17 -36 -18 -43 -5 -80 9 -27 25 -47 49 -61 34 -20
49 -20 827 -23 875 -3 843 -5 883 60 24 40 25 78 4 119 -29 56 -49 59 -419 59
l-335 0 0 459 0 459 63 7 c169 19 317 63 482 145 408 202 715 599 805 1039 17
85 20 138 20 371 0 303 -2 315 -66 345 -60 28 -124 8 -157 -50 -7 -13 -14
-122 -18 -300 -6 -236 -10 -294 -28 -369 -65 -272 -233 -521 -473 -702 -372
-280 -882 -331 -1293 -130 -304 150 -538 415 -645 734 -48 143 -60 240 -60
481 -1 237 -7 282 -43 319 -33 33 -110 41 -150 15z"/>
</g>
</svg>
