<?xml version="1.0" standalone="no"?>
<!DOCTYPE svg PUBLIC "-//W3C//DTD SVG 20010904//EN"
 "http://www.w3.org/TR/2001/REC-SVG-20010904/DTD/svg10.dtd">
<svg version="1.0" xmlns="http://www.w3.org/2000/svg"
 width="309.000000pt" height="304.000000pt" viewBox="0 0 309.000000 304.000000"
 preserveAspectRatio="xMidYMid meet">

<g transform="translate(0.000000,304.000000) scale(0.100000,-0.100000)"
fill="#000000" stroke="none">
<path d="M1400 2973 c-140 -14 -370 -83 -500 -148 -276 -139 -524 -394 -657
-676 -37 -78 -85 -224 -108 -329 -23 -104 -31 -385 -15 -503 44 -322 185 -611
410 -837 201 -203 442 -331 740 -396 121 -27 458 -27 579 -1 446 96 779 348
1004 757 45 82 127 326 127 378 0 50 -32 82 -82 82 -47 0 -65 -23 -93 -117
-49 -170 -105 -289 -196 -417 -196 -276 -466 -452 -802 -523 -114 -24 -360
-24 -480 0 -495 99 -862 434 -1002 912 -183 626 123 1293 710 1546 197 86 357
115 575 106 149 -6 235 -21 364 -66 233 -81 433 -225 591 -426 67 -86 125
-175 125 -194 0 -8 -45 -11 -152 -11 -105 -1 -158 -5 -169 -13 -27 -20 -41
-56 -34 -88 13 -58 21 -59 342 -59 280 0 294 1 313 20 19 19 20 33 20 289 0
256 -1 269 -21 295 -26 33 -88 37 -119 6 -18 -18 -20 -33 -20 -180 0 -88 -3
-160 -7 -160 -5 1 -37 46 -73 102 -71 110 -251 303 -350 374 -263 190 -566
287 -880 282 -58 0 -121 -3 -140 -5z"/>
</g>
</svg>
